<mxfile host="Electron" modified="2024-05-01T14:12:51.136Z" agent="Mozilla/5.0 (Windows NT 10.0; Win64; x64) AppleWebKit/537.36 (KHTML, like Gecko) draw.io/24.2.5 Chrome/120.0.6099.109 Electron/28.1.0 Safari/537.36" etag="-gHa4jnIBbczsU_q883p" version="24.2.5" type="device">
  <diagram name="Page-1" id="2YBvvXClWsGukQMizWep">
    <mxGraphModel dx="521" dy="621" grid="1" gridSize="10" guides="1" tooltips="1" connect="1" arrows="1" fold="1" page="1" pageScale="1" pageWidth="850" pageHeight="1100" math="0" shadow="0">
      <root>
        <mxCell id="0" />
        <mxCell id="1" parent="0" />
        <mxCell id="guPBdKr2Fl-tSbYNSDa0-4" value=":Doctor" style="html=1;whiteSpace=wrap;" vertex="1" parent="1">
          <mxGeometry x="400" y="100" width="110" height="50" as="geometry" />
        </mxCell>
        <mxCell id="guPBdKr2Fl-tSbYNSDa0-5" value=":Receptionist" style="html=1;whiteSpace=wrap;" vertex="1" parent="1">
          <mxGeometry x="220" y="100" width="110" height="50" as="geometry" />
        </mxCell>
        <mxCell id="guPBdKr2Fl-tSbYNSDa0-27" style="edgeStyle=orthogonalEdgeStyle;rounded=0;orthogonalLoop=1;jettySize=auto;html=1;curved=0;" edge="1" parent="1">
          <mxGeometry relative="1" as="geometry">
            <mxPoint x="280" y="250" as="sourcePoint" />
            <mxPoint x="450" y="250" as="targetPoint" />
          </mxGeometry>
        </mxCell>
        <mxCell id="guPBdKr2Fl-tSbYNSDa0-36" style="edgeStyle=orthogonalEdgeStyle;rounded=0;orthogonalLoop=1;jettySize=auto;html=1;curved=0;" edge="1" parent="1">
          <mxGeometry relative="1" as="geometry">
            <mxPoint x="270" y="267" as="sourcePoint" />
            <mxPoint x="110" y="267" as="targetPoint" />
            <Array as="points">
              <mxPoint x="230" y="267" />
              <mxPoint x="230" y="267" />
            </Array>
          </mxGeometry>
        </mxCell>
        <mxCell id="guPBdKr2Fl-tSbYNSDa0-15" value="" style="html=1;points=[[0,0,0,0,5],[0,1,0,0,-5],[1,0,0,0,5],[1,1,0,0,-5]];perimeter=orthogonalPerimeter;outlineConnect=0;targetShapes=umlLifeline;portConstraint=eastwest;newEdgeStyle={&quot;curved&quot;:0,&quot;rounded&quot;:0};" vertex="1" parent="1">
          <mxGeometry x="270" y="170" width="10" height="190" as="geometry" />
        </mxCell>
        <mxCell id="guPBdKr2Fl-tSbYNSDa0-16" style="edgeStyle=orthogonalEdgeStyle;rounded=0;orthogonalLoop=1;jettySize=auto;html=1;exitX=0.5;exitY=1;exitDx=0;exitDy=0;entryX=1;entryY=0;entryDx=0;entryDy=5;entryPerimeter=0;" edge="1" parent="1" source="guPBdKr2Fl-tSbYNSDa0-5" target="guPBdKr2Fl-tSbYNSDa0-15">
          <mxGeometry relative="1" as="geometry" />
        </mxCell>
        <mxCell id="guPBdKr2Fl-tSbYNSDa0-17" value="" style="html=1;points=[[0,0,0,0,5],[0,1,0,0,-5],[1,0,0,0,5],[1,1,0,0,-5]];perimeter=orthogonalPerimeter;outlineConnect=0;targetShapes=umlLifeline;portConstraint=eastwest;newEdgeStyle={&quot;curved&quot;:0,&quot;rounded&quot;:0};" vertex="1" parent="1">
          <mxGeometry x="450" y="170" width="10" height="270" as="geometry" />
        </mxCell>
        <mxCell id="guPBdKr2Fl-tSbYNSDa0-18" style="edgeStyle=orthogonalEdgeStyle;rounded=0;orthogonalLoop=1;jettySize=auto;html=1;curved=0;exitX=1;exitY=0;exitDx=0;exitDy=5;exitPerimeter=0;entryX=0;entryY=0;entryDx=0;entryDy=5;entryPerimeter=0;" edge="1" parent="1" source="guPBdKr2Fl-tSbYNSDa0-15" target="guPBdKr2Fl-tSbYNSDa0-17">
          <mxGeometry relative="1" as="geometry" />
        </mxCell>
        <mxCell id="guPBdKr2Fl-tSbYNSDa0-19" value="[send patient info]" style="text;html=1;align=center;verticalAlign=middle;resizable=0;points=[];autosize=1;strokeColor=none;fillColor=none;" vertex="1" parent="1">
          <mxGeometry x="300" y="150" width="120" height="30" as="geometry" />
        </mxCell>
        <mxCell id="guPBdKr2Fl-tSbYNSDa0-20" value="[Test Needed]" style="html=1;verticalAlign=bottom;endArrow=open;dashed=1;endSize=8;curved=0;rounded=0;" edge="1" parent="1" source="guPBdKr2Fl-tSbYNSDa0-17" target="guPBdKr2Fl-tSbYNSDa0-15">
          <mxGeometry relative="1" as="geometry">
            <mxPoint x="400" y="320" as="sourcePoint" />
            <mxPoint x="320" y="320" as="targetPoint" />
            <Array as="points">
              <mxPoint x="370" y="200" />
            </Array>
          </mxGeometry>
        </mxCell>
        <mxCell id="guPBdKr2Fl-tSbYNSDa0-21" style="edgeStyle=orthogonalEdgeStyle;rounded=0;orthogonalLoop=1;jettySize=auto;html=1;exitX=0.5;exitY=1;exitDx=0;exitDy=0;entryX=1;entryY=0;entryDx=0;entryDy=5;entryPerimeter=0;" edge="1" parent="1" source="guPBdKr2Fl-tSbYNSDa0-4" target="guPBdKr2Fl-tSbYNSDa0-17">
          <mxGeometry relative="1" as="geometry" />
        </mxCell>
        <mxCell id="guPBdKr2Fl-tSbYNSDa0-28" value="[Schedule appointment]" style="text;html=1;align=center;verticalAlign=middle;resizable=0;points=[];autosize=1;strokeColor=none;fillColor=none;" vertex="1" parent="1">
          <mxGeometry x="285" y="218" width="150" height="30" as="geometry" />
        </mxCell>
        <mxCell id="guPBdKr2Fl-tSbYNSDa0-32" value="[Appointment Approved]" style="html=1;verticalAlign=bottom;endArrow=open;dashed=1;endSize=8;curved=0;rounded=0;" edge="1" parent="1">
          <mxGeometry relative="1" as="geometry">
            <mxPoint x="450" y="284.5" as="sourcePoint" />
            <mxPoint x="280" y="284.5" as="targetPoint" />
            <Array as="points" />
          </mxGeometry>
        </mxCell>
        <mxCell id="guPBdKr2Fl-tSbYNSDa0-33" value=":Patient" style="html=1;whiteSpace=wrap;" vertex="1" parent="1">
          <mxGeometry x="50" y="100" width="110" height="50" as="geometry" />
        </mxCell>
        <mxCell id="guPBdKr2Fl-tSbYNSDa0-34" value="" style="html=1;points=[[0,0,0,0,5],[0,1,0,0,-5],[1,0,0,0,5],[1,1,0,0,-5]];perimeter=orthogonalPerimeter;outlineConnect=0;targetShapes=umlLifeline;portConstraint=eastwest;newEdgeStyle={&quot;curved&quot;:0,&quot;rounded&quot;:0};" vertex="1" parent="1">
          <mxGeometry x="100" y="248" width="10" height="180" as="geometry" />
        </mxCell>
        <mxCell id="guPBdKr2Fl-tSbYNSDa0-35" style="edgeStyle=orthogonalEdgeStyle;rounded=0;orthogonalLoop=1;jettySize=auto;html=1;exitX=0.5;exitY=1;exitDx=0;exitDy=0;entryX=1;entryY=0;entryDx=0;entryDy=5;entryPerimeter=0;" edge="1" parent="1" source="guPBdKr2Fl-tSbYNSDa0-33" target="guPBdKr2Fl-tSbYNSDa0-34">
          <mxGeometry relative="1" as="geometry">
            <Array as="points">
              <mxPoint x="110" y="150" />
            </Array>
          </mxGeometry>
        </mxCell>
        <mxCell id="guPBdKr2Fl-tSbYNSDa0-37" value="[Appointment Date]" style="text;html=1;align=center;verticalAlign=middle;resizable=0;points=[];autosize=1;strokeColor=none;fillColor=none;" vertex="1" parent="1">
          <mxGeometry x="125" y="238" width="130" height="30" as="geometry" />
        </mxCell>
        <mxCell id="guPBdKr2Fl-tSbYNSDa0-39" value="[Confirm Date]" style="html=1;verticalAlign=bottom;endArrow=open;dashed=1;endSize=8;curved=0;rounded=0;" edge="1" parent="1" source="guPBdKr2Fl-tSbYNSDa0-34" target="guPBdKr2Fl-tSbYNSDa0-15">
          <mxGeometry relative="1" as="geometry">
            <mxPoint x="120" y="350" as="sourcePoint" />
            <mxPoint x="210" y="230" as="targetPoint" />
          </mxGeometry>
        </mxCell>
        <mxCell id="guPBdKr2Fl-tSbYNSDa0-44" value="[Perform Test]" style="html=1;verticalAlign=bottom;endArrow=block;curved=0;rounded=0;" edge="1" parent="1">
          <mxGeometry width="80" relative="1" as="geometry">
            <mxPoint x="110" y="370" as="sourcePoint" />
            <mxPoint x="450" y="370" as="targetPoint" />
            <Array as="points">
              <mxPoint x="350" y="370" />
            </Array>
          </mxGeometry>
        </mxCell>
        <mxCell id="guPBdKr2Fl-tSbYNSDa0-46" style="edgeStyle=orthogonalEdgeStyle;rounded=0;orthogonalLoop=1;jettySize=auto;html=1;curved=0;" edge="1" parent="1" source="guPBdKr2Fl-tSbYNSDa0-17">
          <mxGeometry relative="1" as="geometry">
            <mxPoint x="460" y="410" as="sourcePoint" />
            <mxPoint x="460" y="430" as="targetPoint" />
            <Array as="points">
              <mxPoint x="480" y="400" />
              <mxPoint x="480" y="430" />
            </Array>
          </mxGeometry>
        </mxCell>
        <mxCell id="guPBdKr2Fl-tSbYNSDa0-48" value="[Upload Result]" style="text;html=1;align=center;verticalAlign=middle;resizable=0;points=[];autosize=1;strokeColor=none;fillColor=none;" vertex="1" parent="1">
          <mxGeometry x="470" y="398" width="110" height="30" as="geometry" />
        </mxCell>
        <mxCell id="guPBdKr2Fl-tSbYNSDa0-49" value="[Give a copy of Result ]" style="html=1;verticalAlign=bottom;endArrow=open;dashed=1;endSize=8;curved=0;rounded=0;entryX=1;entryY=1;entryDx=0;entryDy=-5;entryPerimeter=0;" edge="1" parent="1" source="guPBdKr2Fl-tSbYNSDa0-17" target="guPBdKr2Fl-tSbYNSDa0-34">
          <mxGeometry relative="1" as="geometry">
            <mxPoint x="370" y="420" as="sourcePoint" />
            <mxPoint x="290" y="420" as="targetPoint" />
          </mxGeometry>
        </mxCell>
        <mxCell id="guPBdKr2Fl-tSbYNSDa0-50" value="[Patient For Test]" style="html=1;verticalAlign=bottom;startArrow=oval;startFill=1;endArrow=block;startSize=8;curved=0;rounded=0;" edge="1" parent="1">
          <mxGeometry width="60" relative="1" as="geometry">
            <mxPoint x="170" y="180" as="sourcePoint" />
            <mxPoint x="270" y="180" as="targetPoint" />
          </mxGeometry>
        </mxCell>
      </root>
    </mxGraphModel>
  </diagram>
</mxfile>
